<?xml version="1.0" encoding="utf-8"?>
<!-- Generator: Adobe Illustrator 23.0.0, SVG Export Plug-In . SVG Version: 6.00 Build 0)  -->
<svg version="1.1" id="Layer_1" xmlns="http://www.w3.org/2000/svg" xmlns:xlink="http://www.w3.org/1999/xlink" x="0px" y="0px"
	 viewBox="0 0 85 70" style="enable-background:new 0 0 85 70;" xml:space="preserve">
<style type="text/css">
	.st0{fill:#1B75BC;}
	.st1{fill:none;stroke:#1B75BC;stroke-width:2.8427;stroke-miterlimit:10;}
</style>
<g>
	<g>
		<path class="st0" d="M19.5,23.7l-0.1,0.1c0,0,0,0.1,0.1,0.1l0.5,0.6L19.5,23.7z"/>
	</g>
	<g>
		<path class="st0" d="M20,24.5l0.3,0.5c0,0.1,0.1,0.1,0.1,0.2l0.1-0.1L20,24.5z"/>
		<path class="st0" d="M80.3,17.9c-5.1-4.1-9.7,0.4-14.4,5.8l0-0.1l-0.2,0.4l-0.1,0.1l-1,1.1l0.2,0.2c-1.1,1.9-2.3,3.9-3.6,5.8
			l-0.6,0.9c-0.4,0.5-0.7,1.1-1.1,1.7c-1.5,2.1-2.9,4-4.3,5.6c-1.8,2.1-3.4,3.6-5,4.8c-5.1,3.9-9.7,3.9-14.9,0
			c-1.5-1.1-3.2-2.7-5-4.8c-1.4-1.7-2.9-3.6-4.3-5.7c-0.4-0.5-0.8-1.1-1.1-1.7l-0.6-0.9c-1.3-2.1-2.6-4.2-3.8-6.2
			c0-0.1-0.1-0.1-0.1-0.2L20,24.5l-0.5-0.6c0,0,0-0.1-0.1-0.1c-4.7-5.6-9.4-10.3-14.6-6.2c-5.6,4.4-4.5,14.2-4,17.9
			c0.8,7.2,2.6,13.9,5.2,20.1l1.6,3.7l0.6-4.3c0.6-4,1.5-7.7,2.6-11.2c0.1-0.3,0.2-0.7,0.4-1c1.8,5.3,4.4,10.1,7.4,14
			c1.5,2,3.2,3.9,4.9,5.4c1.6,1.5,3.3,1.2,5,0.1c-1.3-0.8-2.5-1.8-3.7-2.9c-1.6-1.5-3.1-3.1-4.5-5.1c-2.9-3.7-5.3-8.4-7.1-13.5
			c1.6-4.5,3.6-8.6,6.2-12.3c1,1.7,2.1,3.4,3.2,5.1l0.6,0.9c0.4,0.6,0.8,1.2,1.2,1.7c1.5,2.2,3,4.2,4.5,5.9c1.9,2.2,3.7,3.9,5.4,5.1
			c2.9,2.2,5.7,3.3,8.5,3.3c0.2,0,0.4,0,0.6,0c2.6-0.1,5.3-1.2,8-3.2c1.7-1.2,3.5-2.9,5.4-5.2c1.5-1.7,3-3.7,4.5-5.9
			c0.4-0.6,0.8-1.1,1.2-1.8l0.6-0.9c1.1-1.7,2.1-3.4,3.1-5c2.6,3.6,4.6,7.7,6.2,12.3c-1.8,5.1-4.2,9.7-7.1,13.5
			c-1.4,1.9-2.9,3.6-4.5,5c-1.2,1.1-2.4,2.1-3.6,2.9c1.7,1.2,3.3,1.5,4.9,0c1.7-1.6,3.4-3.4,4.9-5.4c2.9-3.7,5.4-8.3,7.2-13.4
			c0.1,0.2,0.2,0.5,0.2,0.7c1.1,3.5,2,7.2,2.6,11.2l0.6,4.3l1.6-3.7c2.6-6.2,4.4-12.9,5.2-20.1C84.7,32.1,85.8,22.4,80.3,17.9z
			 M13.7,30.4c-2.1,3.8-3.8,7.9-5.1,12.1c-0.8,2.4-1.5,5-2,7.6c-1.7-4.8-2.8-9.9-3.4-15.2C2.7,31.3,1.8,23.8,6,20.5
			c0.8-0.6,1.6-0.9,2.3-1.1c2.5-0.3,5.1,1.9,8.6,5.8C15.8,26.9,14.7,28.6,13.7,30.4z M81.9,35.3c-0.6,5.3-1.8,10.4-3.5,15.2
			c-0.5-2.7-1.2-5.2-2-7.6c-1.3-4.3-3-8.4-5.1-12.2c-1-1.8-2-3.5-3.2-5.1c4.6-5.2,7.7-7.3,11-4.7C83.2,24.1,82.3,31.6,81.9,35.3z
			 M43.2,50.6c-0.2,0-0.4,0-0.6,0c-4.8,0.6-9.7,9-14.2,11.7c4.4,3,9.3,4.6,14.2,4.6c5,0,9.9-1.6,14.3-4.7
			C52.7,59.4,48.1,50.7,43.2,50.6z"/>
	</g>
	<g>
		<path class="st1" d="M65.1,12.9c-0.7,1.1-1.4,2.3-2.1,3.5c-0.6,1-1.2,2-1.8,3c-5.3-4.9-11.7-7.8-18.6-7.8s-13.3,2.9-18.6,7.8
			c-0.6-1-1.2-2.1-1.8-3c-0.7-1.2-1.4-2.4-2.1-3.5c6.4-6.1,14.2-9.7,22.5-9.7C51,3.2,58.7,6.7,65.1,12.9z"/>
		<path class="st1" d="M65.1,25.9c-0.7-1.1-1.4-2.3-2.1-3.5c-0.6-1-1.2-2-1.8-3c-5.3,4.9-11.7,7.8-18.6,7.8s-13.3-2.9-18.6-7.8
			c-0.6,1-1.2,2.1-1.8,3c-0.7,1.2-1.4,2.4-2.1,3.5c6.4,6.1,14.2,9.7,22.5,9.7C51,35.7,58.7,32.1,65.1,25.9z"/>
	</g>
</g>
<g>
</g>
<g>
</g>
<g>
</g>
<g>
</g>
<g>
</g>
<g>
</g>
</svg>
